<?xml version="1.0" standalone="no"?>
<!DOCTYPE svg PUBLIC "-//W3C//DTD SVG 20010904//EN"
 "http://www.w3.org/TR/2001/REC-SVG-20010904/DTD/svg10.dtd">
<svg version="1.0" xmlns="http://www.w3.org/2000/svg"
 width="2286.000000pt" height="2286.000000pt" viewBox="0 0 2286.000000 2286.000000"
 preserveAspectRatio="xMidYMid meet">
<metadata>
Created by potrace 1.11, written by Peter Selinger 2001-2013
</metadata>
<g transform="translate(0.000000,2286.000000) scale(0.100000,-0.100000)"
fill="#000000" stroke="none">
<path d="M4835 19190 c-38 -19 -119 -56 -180 -82 -60 -26 -128 -55 -150 -64
-22 -10 -42 -18 -45 -19 -41 -11 -105 -39 -270 -118 -47 -23 -87 -41 -90 -42
-11 -3 -360 -182 -460 -236 -421 -230 -1029 -585 -1365 -797 -44 -28 -147 -92
-229 -144 -217 -136 -262 -164 -398 -253 -140 -90 -441 -287 -447 -292 -14
-10 123 -411 197 -578 97 -220 197 -396 311 -545 58 -76 163 -188 180 -191 3
-1 104 -2 223 -3 129 -1 221 -5 227 -11 5 -6 25 -39 44 -75 113 -213 144 -271
198 -367 10 -18 35 -63 55 -100 21 -37 57 -101 81 -141 24 -41 43 -75 43 -77
0 -1 37 -65 82 -141 45 -77 93 -159 107 -184 13 -25 27 -47 30 -50 3 -3 15
-21 25 -40 48 -88 315 -492 392 -591 27 -36 42 -64 38 -72 -6 -10 -90 -111
-119 -143 -5 -6 -37 -42 -70 -80 -33 -38 -80 -91 -105 -118 -25 -27 -52 -57
-60 -66 -316 -349 -736 -773 -1023 -1033 -15 -14 -29 -38 -31 -53 -18 -134
-121 -423 -193 -537 l-24 -38 33 -47 c18 -26 35 -49 38 -52 6 -6 103 -152 110
-165 3 -5 25 -41 51 -80 140 -217 284 -513 291 -601 1 -13 4 -24 7 -24 6 0
104 62 111 70 3 4 43 32 90 63 47 31 121 82 165 112 44 30 87 59 95 65 8 5 41
28 72 50 32 21 106 72 165 112 60 40 110 75 113 78 12 12 101 70 109 70 5 0
11 3 13 8 2 4 48 38 103 75 222 151 387 263 403 272 9 6 19 13 22 16 4 5 112
78 168 114 9 6 21 14 26 18 36 29 259 177 266 177 5 0 10 3 12 8 3 7 58 45
383 263 61 41 112 77 115 80 3 3 10 8 15 10 24 9 682 453 702 472 29 29 104
175 136 264 36 100 58 219 43 236 -25 31 -375 266 -596 400 -63 39 -176 101
-250 139 l-135 69 -56 87 c-152 236 -422 764 -657 1282 -11 25 -39 85 -61 133
-23 49 -41 90 -41 92 0 2 -20 46 -45 99 -25 53 -45 100 -45 104 0 4 -11 28
-25 55 -14 26 -23 47 -21 47 3 0 -11 31 -30 70 -18 38 -34 72 -34 75 0 3 -9
25 -19 48 -25 56 -78 179 -106 247 -13 30 -30 71 -38 91 l-16 36 75 54 c42 30
81 59 87 64 7 6 77 59 157 120 245 185 610 471 716 563 17 15 42 36 55 47 178
149 218 184 386 343 105 100 120 118 113 137 -10 26 -67 239 -75 280 -21 106
-47 256 -50 290 -3 22 -7 56 -10 75 -3 19 -8 62 -10 95 -3 33 -8 80 -11 105
-2 25 -7 126 -10 224 -2 99 -6 180 -7 181 -1 1 -33 -15 -72 -35z"/>
<path d="M15050 18609 c-81 -20 -83 -20 -211 -45 -70 -13 -89 -21 -97 -38 -5
-12 -22 -37 -38 -55 -28 -33 -28 -34 -95 -28 -37 3 -84 14 -106 25 -25 13 -59
20 -99 20 -39 0 -90 10 -147 29 -65 22 -87 26 -88 16 -2 -16 -3 -20 -12 -55
-6 -23 -13 -28 -40 -28 -37 1 -113 16 -142 30 -11 5 -50 22 -86 38 l-65 29
-266 -1 c-147 -1 -269 -3 -271 -6 -3 -3 -8 -43 -12 -90 -3 -47 -8 -96 -10
-110 -2 -14 -9 -63 -15 -110 -5 -47 -12 -96 -15 -110 -3 -14 -7 -44 -9 -65 -3
-22 -10 -74 -16 -115 -6 -41 -13 -91 -15 -110 -2 -19 -7 -53 -11 -75 -3 -22
-8 -49 -9 -60 -9 -58 -27 -173 -31 -195 -2 -14 -7 -44 -10 -66 -2 -23 -7 -53
-9 -65 -3 -13 -8 -44 -11 -69 -3 -25 -7 -52 -9 -60 -1 -8 -6 -35 -10 -60 -4
-25 -9 -54 -11 -65 -2 -11 -7 -40 -10 -65 -3 -25 -7 -52 -9 -60 -2 -8 -7 -35
-10 -60 -3 -25 -8 -52 -10 -60 -2 -8 -7 -40 -10 -70 -4 -30 -9 -58 -11 -61 -1
-3 -6 -28 -9 -56 -3 -27 -8 -60 -11 -74 -3 -13 -7 -40 -9 -59 -3 -19 -7 -44
-10 -56 -2 -12 -7 -39 -10 -60 -4 -21 -18 -106 -32 -189 -14 -82 -27 -163 -29
-180 -2 -16 -6 -41 -9 -55 -2 -14 -7 -41 -10 -60 -10 -60 -13 -77 -70 -420
-31 -184 -58 -346 -60 -360 -3 -14 -8 -43 -10 -65 -3 -22 -8 -47 -10 -55 -2
-8 -7 -35 -11 -60 -8 -62 -9 -69 -33 -205 -23 -126 -29 -161 -36 -210 -2 -16
-6 -41 -9 -55 -7 -32 -53 -302 -61 -355 -3 -22 -7 -47 -10 -55 -2 -8 -6 -33
-10 -55 -3 -22 -12 -76 -20 -120 -8 -44 -16 -93 -19 -110 -2 -16 -18 -109 -34
-205 -17 -96 -33 -191 -36 -211 -3 -20 -7 -42 -10 -50 -3 -8 -7 -32 -10 -54
-3 -22 -7 -50 -10 -61 -4 -21 -13 -70 -22 -129 -3 -16 -7 -39 -8 -50 -12 -68
-18 -100 -21 -116 -2 -10 0 -21 5 -24 13 -8 192 -44 252 -50 97 -11 108 -15
183 -70 41 -30 77 -55 81 -55 4 0 15 -6 23 -14 18 -15 64 -41 231 -132 63 -35
122 -69 130 -76 8 -7 16 -12 18 -10 1 2 108 -49 237 -112 129 -64 237 -116
239 -116 2 0 58 -25 123 -56 65 -31 156 -73 203 -94 47 -21 112 -51 145 -66
33 -15 62 -28 65 -29 3 0 22 -8 43 -18 20 -9 52 -23 70 -31 17 -8 68 -31 112
-51 44 -20 82 -37 85 -37 9 -2 103 -42 195 -83 17 -7 71 -30 120 -50 50 -21
96 -42 103 -47 6 -6 12 -8 12 -5 0 5 73 -25 205 -82 11 -5 60 -26 109 -46 l90
-37 19 23 c10 13 28 35 40 49 19 22 70 84 117 143 8 11 20 24 25 31 27 28 229
302 298 402 172 249 359 587 443 799 49 124 32 289 -50 484 -29 68 -83 169
-101 187 -9 10 -70 34 -100 40 -5 1 -80 22 -165 47 -85 25 -279 80 -430 122
-151 42 -297 82 -325 90 -27 8 -176 49 -330 90 -154 42 -329 89 -388 105 -59
17 -115 30 -123 30 -12 0 -14 8 -9 38 4 20 8 46 9 57 2 11 7 38 11 60 10 53
12 64 21 122 5 26 9 50 9 53 5 22 19 99 21 115 1 11 3 20 4 20 1 0 3 11 6 25
2 14 8 48 14 75 5 28 11 61 14 75 2 14 11 63 20 110 8 47 17 96 20 110 2 14
11 59 20 100 8 41 17 89 20 105 2 17 18 104 36 195 17 91 34 176 36 190 7 37
33 172 37 195 3 11 7 36 11 55 3 19 8 46 11 60 3 14 8 41 11 60 3 19 10 53 16
75 6 22 12 54 13 70 1 17 7 50 13 75 6 25 14 61 17 80 3 19 17 89 30 155 13
66 27 134 29 150 3 17 8 41 11 55 2 14 9 48 15 75 5 28 12 66 15 85 3 19 10
50 15 69 5 19 7 38 4 42 -2 4 0 10 5 14 5 3 9 13 9 23 -1 9 36 204 82 432 45
228 84 424 86 435 2 11 6 31 9 45 3 14 7 34 9 45 6 31 77 388 82 410 2 11 7
36 10 55 4 19 9 44 12 55 17 71 14 96 -13 125 l-28 29 -14 -25 c-7 -15 -13
-33 -13 -40 0 -8 -4 -14 -9 -14 -10 0 -9 7 4 53 4 15 6 29 4 31 -2 1 -38 -5
-79 -15z"/>
<path d="M20613 18219 c-61 -26 -158 -64 -215 -83 -57 -20 -123 -43 -148 -52
-25 -9 -52 -17 -60 -19 -8 -2 -40 -12 -70 -23 -54 -20 -241 -80 -270 -88 -8
-2 -141 -42 -295 -89 -154 -47 -287 -88 -295 -89 -8 -2 -109 -32 -225 -66
-115 -34 -217 -63 -225 -65 -29 -6 -135 -36 -160 -45 -14 -5 -36 -12 -50 -14
-23 -5 -58 -14 -185 -52 -55 -16 -54 -15 -145 -38 -36 -9 -76 -21 -90 -27 -14
-5 -36 -12 -50 -14 -14 -3 -99 -25 -190 -51 -91 -25 -172 -47 -180 -49 -8 -2
-58 -15 -110 -30 -52 -14 -102 -28 -110 -30 -8 -2 -60 -15 -115 -30 -55 -14
-107 -28 -115 -30 -139 -36 -165 -46 -213 -82 -95 -72 -226 -134 -307 -146
-27 -4 -28 -6 -34 -57 -29 -236 -29 -815 -1 -1120 9 -90 4 -85 86 -82 41 1 86
6 102 12 28 9 31 6 29 -35 -3 -45 0 -849 2 -965 2 -69 7 -251 10 -405 4 -154
9 -336 11 -405 3 -69 7 -201 10 -295 11 -343 26 -763 30 -865 3 -47 7 -152 10
-235 9 -259 14 -386 20 -520 6 -150 13 -310 20 -480 5 -122 10 -250 21 -475 3
-69 7 -160 8 -202 0 -44 5 -79 11 -79 5 -1 20 -3 32 -4 11 -1 45 -6 75 -10 29
-4 71 -9 93 -11 22 -1 60 -5 85 -8 189 -22 632 -23 790 -1 148 20 280 49 365
81 60 23 83 26 160 24 50 -2 245 -3 435 -3 383 -1 595 5 990 28 52 3 131 7
175 10 44 2 112 7 150 10 118 10 167 14 245 20 41 3 95 7 120 10 25 3 71 7
103 10 121 11 174 16 222 21 48 5 74 8 175 19 25 3 70 7 100 11 30 3 73 7 95
10 22 2 63 7 90 10 28 3 61 7 75 9 14 3 50 7 80 10 97 10 90 7 209 93 13 9 29
22 35 27 6 6 20 17 32 25 40 28 148 125 238 215 199 197 400 468 520 700 l46
90 -32 28 c-50 43 -56 47 -66 47 -5 0 -15 7 -23 16 -10 12 -25 14 -68 9 -240
-25 -874 -43 -2156 -60 -485 -6 -1504 -17 -1545 -16 -19 0 -48 1 -65 0 -386
-3 -485 -3 -486 1 0 3 -2 12 -3 20 -4 18 -16 120 -21 171 -2 20 -9 72 -14 115
-6 44 -13 106 -16 139 -3 33 -10 96 -15 140 -5 44 -12 109 -15 145 -3 36 -8
88 -11 115 -9 86 -13 128 -19 195 -3 36 -8 92 -11 125 -3 33 -7 78 -9 100 -12
152 -17 213 -19 235 l-1 25 110 1 c127 1 186 8 270 31 39 10 88 15 140 13 181
-7 442 0 570 14 17 2 59 6 95 10 36 3 74 8 85 10 11 2 49 7 85 11 36 4 72 8
80 10 8 1 42 6 75 10 81 10 97 13 107 23 14 14 10 212 -6 314 -19 116 -56 237
-103 338 -46 98 -49 101 -80 89 -23 -9 -131 -32 -198 -43 -114 -19 -169 -26
-225 -31 -36 -3 -78 -8 -95 -10 -130 -16 -497 -22 -730 -11 -191 9 -224 12
-230 17 -5 6 -11 80 -20 264 -3 55 -7 139 -10 187 -14 254 -33 756 -39 1016
-3 90 -6 166 -9 168 -9 9 9 57 24 66 7 4 106 47 219 94 113 47 211 91 218 96
6 6 12 8 12 5 0 -3 33 9 73 28 69 32 146 66 157 70 9 3 83 36 135 60 28 13 88
40 135 60 47 20 111 50 142 66 32 16 60 29 63 29 3 0 53 23 111 50 58 28 107
50 109 50 3 0 169 78 350 165 77 37 172 82 210 100 274 128 1078 526 1086 538
3 5 10 9 15 9 9 0 84 36 93 44 3 2 -4 12 -15 22 -11 9 -58 51 -104 92 -87 77
-285 278 -380 385 -30 33 -56 61 -59 61 -3 1 -56 -20 -118 -47z"/>
<path d="M8807 17554 c-1 -1 -38 -4 -82 -8 -44 -3 -92 -8 -106 -11 -14 -3 -42
-6 -62 -7 -20 -2 -37 -7 -37 -11 0 -5 -4 -6 -9 -3 -20 13 -293 -74 -323 -103
-9 -9 -39 -68 -66 -131 -27 -63 -61 -141 -76 -172 -14 -31 -26 -59 -26 -62 0
-3 -11 -29 -24 -58 -25 -54 -87 -195 -150 -340 -95 -220 -574 -1298 -731
-1648 -76 -168 -144 -323 -153 -345 -9 -22 -22 -48 -30 -57 -8 -10 -12 -18 -8
-18 4 0 0 -12 -8 -27 -9 -16 -50 -104 -92 -198 -172 -384 -262 -582 -354 -780
-18 -38 -61 -133 -96 -211 -34 -78 -81 -179 -102 -225 -22 -46 -50 -106 -62
-134 -13 -27 -42 -91 -65 -140 -23 -50 -48 -108 -56 -128 -7 -20 -17 -37 -21
-37 -4 0 -8 -6 -8 -13 0 -7 -12 -38 -27 -68 -15 -30 -27 -56 -28 -59 -3 -12
-78 -173 -171 -368 -30 -63 -54 -115 -54 -117 0 -2 -24 -54 -54 -116 -29 -63
-72 -153 -95 -202 -22 -48 -41 -92 -41 -97 0 -6 -4 -10 -10 -10 -5 0 -10 -7
-10 -14 0 -8 -25 -64 -55 -125 -30 -61 -55 -112 -55 -115 0 -2 -25 -57 -57
-122 -31 -65 -56 -123 -56 -129 1 -5 11 -53 23 -105 12 -52 24 -129 26 -170 6
-85 10 -104 23 -96 38 24 1472 25 1510 2 17 -11 34 14 98 134 32 60 84 155
115 210 14 25 47 86 73 135 45 85 64 120 134 248 15 28 103 194 195 367 92
173 171 322 176 330 5 8 19 35 31 59 12 24 45 87 74 140 28 53 81 152 117 221
62 118 107 205 315 605 48 94 135 263 193 378 l105 207 50 19 c83 31 470 159
500 165 6 2 34 10 64 19 30 9 59 17 65 17 6 0 22 -28 35 -62 13 -35 33 -83 43
-108 11 -25 24 -54 29 -65 40 -94 173 -394 198 -447 133 -289 177 -380 355
-738 159 -322 271 -540 372 -727 26 -49 58 -109 70 -135 13 -25 28 -49 34 -53
22 -14 312 165 495 304 40 31 83 63 96 71 12 8 36 27 53 41 17 14 82 65 144
113 138 107 147 117 168 175 25 70 52 202 48 241 -2 28 -174 516 -213 605 -12
27 -36 89 -36 95 -1 3 -9 22 -18 44 -9 21 -17 40 -17 42 0 4 -141 371 -178
464 -14 36 -34 88 -92 240 -29 74 -58 149 -65 165 -29 68 -29 75 2 76 15 0 37
2 48 5 11 2 45 6 75 9 30 3 73 7 95 10 65 7 214 16 309 19 82 3 94 1 135 -24
70 -40 148 -75 226 -100 39 -13 77 -25 85 -28 8 -3 22 -6 30 -8 8 -1 44 -8 80
-14 100 -19 265 -26 355 -15 17 1 38 3 48 4 10 1 16 5 13 10 -8 12 -283 147
-331 161 -22 7 -47 15 -55 18 -8 3 -19 6 -25 7 -5 2 -28 8 -50 14 -116 31
-279 30 -373 -3 -42 -15 -43 -15 -51 7 -7 19 -8 47 -2 79 0 4 15 23 33 43 30
35 30 36 7 31 -34 -7 -85 -15 -149 -22 -30 -4 -62 -8 -70 -9 -8 -2 -40 -6 -70
-10 -58 -8 -85 -13 -85 -15 0 0 -18 -3 -40 -6 -57 -6 -95 -11 -130 -17 -52 -9
-129 -19 -159 -21 -31 -1 -11 -47 -239 534 -193 493 -381 968 -399 1010 -11
25 -21 52 -23 60 -4 17 -69 179 -92 229 -8 18 -16 39 -17 45 -1 6 -9 27 -18
46 -51 120 -70 183 -61 203 5 12 9 33 8 47 -5 60 -16 188 -20 223 -4 32 -9 68
-20 142 -1 11 -6 43 -10 70 -3 28 -17 103 -31 169 -13 65 -24 122 -24 126 0
13 -139 58 -225 74 -16 3 -73 14 -126 25 -53 11 -125 23 -160 27 -35 3 -67 8
-70 10 -11 6 -365 23 -372 18z m242 -3002 c25 -75 57 -167 72 -204 15 -38 26
-68 23 -68 -2 0 2 -13 10 -28 l15 -28 -112 -28 c-62 -15 -120 -29 -129 -32
-37 -9 -59 -14 -77 -18 -11 -3 -29 -10 -40 -16 -12 -6 -21 -8 -21 -6 0 3 -18
-1 -40 -9 -22 -8 -40 -11 -40 -8 0 11 285 583 290 582 3 0 25 -61 49 -137z"/>
<path d="M11978 14921 c-38 -10 -68 -16 -68 -14 0 2 -9 -1 -21 -7 -11 -6 -28
-13 -38 -15 -35 -7 -173 -65 -201 -85 -16 -11 -31 -20 -34 -20 -18 0 -138
-113 -159 -149 -19 -32 -19 -33 35 -50 75 -24 171 -33 242 -21 129 21 236 103
300 232 20 40 37 83 39 95 2 12 6 26 10 29 28 28 -10 30 -105 5z"/>
<path d="M15865 10071 c-41 -22 -63 -26 -128 -26 l-78 0 -50 -55 c-28 -30 -69
-77 -92 -104 -23 -27 -56 -66 -73 -85 -126 -147 -376 -469 -579 -746 -60 -82
-113 -151 -117 -153 -5 -2 -8 -7 -8 -12 0 -6 -159 -236 -197 -285 -30 -38
-250 -363 -400 -590 -80 -121 -156 -235 -169 -254 l-23 -34 57 -66 c175 -205
457 -458 597 -537 109 -61 168 -90 215 -104 62 -19 39 15 202 -300 147 -283
211 -406 233 -445 12 -22 48 -89 80 -150 32 -60 62 -115 66 -121 5 -6 26 -44
48 -85 21 -41 61 -113 89 -161 l51 -88 -62 -42 c-123 -84 -297 -199 -413 -273
-66 -41 -126 -80 -134 -85 -36 -24 -106 -67 -120 -73 -8 -4 -27 -15 -42 -25
-65 -42 -357 -210 -483 -276 -112 -60 -112 -59 -119 -101 -4 -19 -23 -67 -44
-106 -26 -50 -33 -74 -24 -77 27 -9 174 -136 236 -204 36 -40 89 -107 117
-148 28 -41 56 -78 63 -82 12 -7 31 -6 121 6 51 7 119 16 145 21 14 2 49 7 79
10 30 4 63 9 75 11 22 4 72 11 126 18 19 3 53 8 75 11 22 3 81 12 130 20 50 8
110 16 135 20 25 3 56 8 70 10 14 3 39 7 55 9 17 2 50 8 75 12 25 4 54 8 65
10 44 6 103 15 150 24 28 5 68 12 90 15 22 3 66 10 97 16 32 5 68 12 80 14 84
14 267 47 286 50 12 3 34 7 50 10 15 3 52 11 82 17 30 6 64 12 75 13 62 8 313
79 330 93 36 31 87 86 126 139 41 55 99 162 99 183 0 36 -394 469 -543 598
-36 31 -38 36 -32 72 6 35 3 44 -28 82 -73 89 -213 339 -364 648 -108 220
-150 309 -250 530 -14 30 -43 93 -64 138 -22 46 -39 86 -39 87 0 2 -18 43 -41
92 -22 48 -51 113 -64 143 -13 30 -29 66 -36 80 -6 14 -46 106 -89 205 -76
177 -77 180 -60 205 9 14 82 138 162 275 163 282 238 416 378 675 74 137 163
311 179 350 6 14 15 32 20 40 16 24 91 189 118 260 14 36 30 69 34 75 22 24 6
52 -63 105 -73 57 -267 243 -330 317 -52 61 -138 181 -138 192 0 20 -16 18
-65 -8z m-1595 -5241 c8 -5 11 -10 5 -10 -5 0 -17 5 -25 10 -8 5 -10 10 -5 10
6 0 17 -5 25 -10z"/>
<path d="M3538 9839 c-49 -25 -138 -47 -213 -51 -66 -4 -173 -50 -630 -268
-66 -31 -135 -63 -152 -71 -18 -8 -33 -17 -33 -21 0 -5 -6 -8 -12 -8 -20 0
-442 -215 -753 -383 -49 -26 -98 -51 -107 -54 -10 -3 -18 -9 -18 -14 0 -5 -4
-9 -9 -9 -8 0 -177 -91 -221 -119 -8 -6 -32 -19 -53 -31 -144 -78 -680 -423
-726 -467 -13 -13 -30 -23 -37 -23 -8 0 -14 -3 -14 -7 0 -5 -17 -19 -38 -33
-20 -14 -86 -65 -147 -114 -60 -49 -111 -90 -113 -92 -4 -2 -7 -27 -17 -127
-3 -37 -8 -76 -9 -85 -2 -9 -7 -48 -10 -87 -4 -38 -9 -81 -11 -95 -5 -38 -15
-129 -20 -185 -5 -55 -15 -137 -20 -175 -2 -14 -7 -54 -10 -90 -3 -36 -7 -76
-9 -90 -2 -14 -7 -56 -11 -95 -11 -116 -15 -158 -20 -205 -7 -54 -13 -114 -20
-195 -3 -33 -7 -71 -10 -85 -2 -14 -7 -59 -10 -100 -3 -41 -8 -88 -9 -105 -2
-16 -6 -61 -10 -100 -4 -38 -9 -92 -12 -120 -5 -51 -8 -84 -18 -210 -3 -38 -8
-88 -11 -110 -18 -151 -24 -361 -12 -437 31 -195 136 -394 252 -474 38 -27
169 -72 365 -125 36 -9 90 -24 122 -33 31 -8 67 -18 80 -21 12 -2 140 -34 283
-70 143 -36 269 -67 280 -69 26 -5 194 -45 220 -52 11 -3 31 -7 45 -10 14 -3
45 -10 70 -16 25 -6 54 -12 65 -14 11 -2 47 -10 80 -19 33 -8 74 -17 90 -21
17 -3 75 -16 130 -29 55 -13 118 -26 140 -31 22 -4 45 -9 50 -10 10 -3 183
-42 220 -49 11 -3 90 -20 175 -39 85 -19 169 -37 185 -41 96 -18 476 -102 480
-107 3 -3 -6 -56 -19 -119 -14 -62 -24 -115 -22 -116 18 -19 456 -17 553 1 10
2 50 7 88 11 39 4 79 9 90 11 11 2 62 11 113 19 52 9 115 20 140 26 26 6 56
13 67 15 24 5 88 18 95 19 59 11 175 72 222 116 59 57 78 96 83 172 2 34 7
100 10 147 9 130 14 216 20 315 3 50 7 117 10 150 2 33 7 107 10 165 4 58 8
125 10 150 2 25 7 97 10 160 4 63 8 131 10 150 2 19 7 80 10 135 3 55 7 123
10 150 4 55 16 231 20 310 4 57 14 216 20 290 2 28 6 98 10 157 l7 106 -29 33
c-57 66 -103 108 -235 215 -22 17 -68 29 -68 18 0 -16 -88 -126 -177 -223 -77
-84 -528 -537 -672 -675 -28 -27 -52 -56 -52 -65 -4 -46 -17 -142 -40 -281
-29 -182 -29 -183 -34 -210 -3 -14 -7 -41 -9 -60 -3 -19 -10 -59 -16 -89 -5
-29 -10 -56 -10 -58 0 -3 -17 -2 -37 2 -21 4 -49 9 -63 12 -14 2 -99 22 -190
45 -91 22 -169 41 -175 42 -14 4 -83 22 -207 58 -60 16 -116 31 -125 33 -10 2
-18 4 -18 5 0 1 -7 3 -15 5 -40 10 -165 46 -245 70 -49 15 -103 31 -120 35
-26 7 -469 141 -665 202 -36 11 -82 25 -102 31 -24 7 -38 17 -38 27 0 19 37
285 45 320 3 14 8 43 11 65 2 22 7 54 10 70 4 17 8 39 9 50 2 11 9 45 15 75 6
30 13 67 15 82 3 16 12 56 20 90 8 35 16 77 19 93 3 17 19 83 36 148 l30 118
83 82 c144 141 207 198 367 332 210 177 468 380 634 500 30 21 94 70 111 83 6
4 39 28 75 52 36 25 69 49 75 53 8 7 192 136 295 207 8 6 96 65 195 131 99 66
183 128 186 137 8 21 4 326 -5 407 -8 71 -26 202 -32 230 -2 11 -6 31 -9 45
-11 57 -14 72 -30 145 -2 11 -8 35 -14 53 -5 18 -10 33 -10 35 1 11 -48 191
-61 222 -4 11 -20 55 -35 98 -15 42 -28 77 -29 77 0 -1 -18 -10 -38 -21z"/>
<path d="M13370 9526 c-307 -105 -768 -294 -1108 -452 -40 -19 -74 -34 -76
-34 -3 0 -60 -26 -128 -59 -68 -32 -159 -75 -203 -96 -137 -64 -579 -285 -586
-293 -5 -5 31 -202 55 -297 6 -27 68 -220 78 -243 6 -15 12 -32 13 -38 6 -25
99 -201 135 -253 62 -91 64 -92 195 -106 33 -4 87 -10 120 -15 48 -6 63 -5 77
7 16 14 18 13 26 -8 5 -13 13 -46 17 -74 5 -27 10 -54 11 -60 2 -5 12 -57 24
-114 11 -57 22 -106 24 -110 2 -3 7 -24 10 -46 4 -22 16 -83 27 -135 11 -52
23 -106 25 -120 3 -14 7 -34 9 -45 2 -11 8 -42 15 -70 6 -27 13 -61 15 -75 6
-34 16 -84 51 -245 2 -11 6 -34 8 -52 3 -18 7 -36 9 -40 3 -4 8 -24 11 -43 6
-37 8 -45 29 -147 l14 -63 -75 -57 c-41 -32 -79 -63 -86 -68 -6 -6 -83 -66
-171 -133 -88 -67 -169 -130 -181 -140 -11 -9 -108 -82 -215 -162 -107 -80
-198 -149 -204 -153 -5 -4 -50 -37 -100 -73 -49 -36 -107 -77 -127 -92 -30
-22 -43 -44 -69 -112 -42 -111 -62 -150 -120 -236 -27 -40 -44 -75 -39 -80 11
-12 130 -246 154 -304 11 -25 27 -63 37 -85 34 -76 82 -242 73 -256 -2 -4 0
-10 5 -13 8 -6 68 23 251 121 36 19 115 60 175 91 61 30 122 64 138 75 15 10
27 15 27 11 0 -3 6 -2 13 4 12 10 75 43 382 202 88 45 178 93 200 105 22 12
153 80 290 151 138 71 291 149 340 175 50 26 167 85 260 132 153 77 174 91
207 135 64 86 133 238 121 269 -3 7 -61 58 -130 114 -68 56 -144 118 -167 138
-67 56 -76 63 -241 190 -85 66 -186 141 -224 168 -73 50 -78 58 -96 162 -3 19
-8 37 -10 40 -3 5 -66 282 -79 346 -5 26 -35 150 -46 195 -14 54 -62 271 -61
277 0 2 -5 17 -10 35 -5 18 -11 44 -14 58 -8 44 -46 211 -84 370 -10 41 -16
78 -14 82 3 7 212 128 220 128 3 0 17 8 31 19 24 16 57 35 152 88 14 8 41 24
61 36 20 12 76 46 125 75 49 30 121 74 159 98 39 24 84 51 100 60 130 73 635
425 635 443 0 3 -18 49 -41 101 -55 128 -106 308 -114 408 -7 79 -9 84 -38 98
-35 19 -73 56 -107 107 -14 20 -27 37 -30 36 -3 0 -75 -24 -160 -53z"/>
<path d="M7697 9554 c-1 -1 -56 -5 -123 -8 -66 -4 -129 -8 -140 -10 -10 -2
-50 -7 -89 -10 -63 -7 -220 -30 -270 -40 -192 -40 -226 -51 -310 -95 -171 -89
-413 -251 -539 -361 -69 -59 -216 -211 -273 -281 -119 -147 -282 -424 -337
-574 -75 -206 -95 -265 -90 -265 4 0 2 -6 -4 -12 -8 -12 -68 -234 -78 -298 -3
-14 -7 -33 -10 -42 -3 -10 -8 -30 -10 -45 -16 -81 -25 -132 -29 -163 -3 -19
-7 -46 -10 -60 -6 -30 -11 -68 -20 -135 -4 -27 -9 -63 -11 -80 -16 -104 -26
-287 -25 -445 2 -140 4 -180 17 -315 4 -44 8 -92 8 -107 1 -16 5 -28 9 -28 5
0 6 -4 3 -8 -11 -17 56 -323 113 -516 77 -261 236 -621 377 -851 13 -22 33
-56 44 -75 27 -47 44 -74 50 -80 3 -3 25 -36 50 -74 24 -38 49 -74 55 -80 6
-6 21 -27 35 -46 64 -93 193 -250 273 -331 119 -121 399 -262 682 -343 33 -10
80 -24 105 -31 47 -14 320 -71 380 -79 19 -3 55 -8 80 -11 25 -3 61 -7 80 -10
19 -2 91 -8 160 -11 268 -15 538 -3 730 31 14 3 41 7 60 10 80 13 298 69 360
92 8 3 20 7 25 8 31 7 232 95 314 138 200 103 342 208 506 372 124 123 130
131 219 250 187 249 374 655 476 1030 26 96 26 94 45 185 32 151 59 330 70
465 3 39 8 88 11 110 5 42 5 407 0 485 -3 39 -11 132 -21 235 -7 72 -28 206
-45 285 -5 25 -12 59 -15 75 -3 17 -16 73 -30 125 -14 52 -28 103 -30 114 -6
26 -54 176 -64 201 -17 41 -33 90 -34 103 0 6 -4 12 -9 12 -4 0 -8 7 -8 15 0
8 -9 34 -19 57 -47 104 -55 123 -56 128 -3 14 -121 234 -145 270 -9 14 -19 30
-21 35 -7 17 -117 178 -141 207 -13 15 -34 41 -48 59 -132 171 -329 346 -510
451 -85 50 -224 118 -241 118 -6 0 -25 7 -42 15 -62 28 -379 123 -470 140 -12
3 -33 7 -47 10 -104 22 -293 54 -366 61 -38 3 -82 8 -99 10 -94 11 -499 25
-508 18z m254 -917 c195 -103 431 -352 580 -613 29 -50 119 -231 119 -239 0
-3 9 -24 20 -48 61 -132 157 -482 176 -640 4 -29 8 -54 9 -57 2 -3 6 -33 10
-65 4 -33 8 -71 11 -85 17 -104 24 -512 11 -675 -17 -208 -25 -265 -62 -420
-9 -38 -18 -77 -20 -85 -5 -25 -64 -203 -76 -230 -6 -14 -17 -38 -24 -55 -104
-243 -281 -472 -475 -616 -36 -27 -70 -53 -77 -59 -7 -5 -15 -10 -19 -10 -3 0
-18 -8 -32 -19 -42 -29 -143 -81 -159 -81 -48 0 -338 279 -461 443 -209 278
-354 583 -431 907 -31 133 -49 234 -57 330 -2 30 -7 80 -9 110 -11 114 -5 403
10 515 2 17 7 57 10 90 4 33 8 67 10 75 3 8 7 33 10 55 8 53 35 182 46 220 5
17 22 76 39 132 30 99 75 218 120 318 24 52 149 276 159 285 3 3 21 28 40 55
85 124 264 315 363 389 64 47 122 86 129 86 4 0 17 -6 30 -13z"/>
<path d="M21792 9525 c-41 -19 -80 -35 -87 -35 -8 0 -16 -4 -19 -9 -3 -5 -23
-12 -43 -16 -21 -4 -42 -10 -48 -15 -9 -6 -144 -51 -170 -55 -5 -1 -12 -3 -15
-4 -3 -2 -12 -4 -20 -6 -8 -2 -78 -19 -155 -39 -77 -19 -151 -37 -165 -40 -14
-2 -45 -9 -70 -15 -47 -10 -84 -17 -135 -26 -16 -3 -50 -10 -75 -15 -40 -8
-114 -22 -197 -36 -16 -2 -38 -6 -50 -9 -12 -3 -39 -7 -60 -10 -21 -3 -49 -7
-63 -10 -14 -3 -43 -7 -65 -10 -22 -3 -80 -12 -128 -21 -49 -8 -112 -17 -140
-20 -29 -3 -55 -8 -58 -10 -3 -2 -32 -6 -64 -10 -32 -3 -66 -7 -76 -9 -9 -2
-39 -7 -66 -11 -26 -3 -57 -8 -68 -10 -18 -4 -35 -6 -130 -19 -16 -2 -46 -6
-65 -9 -19 -3 -123 -19 -230 -36 -107 -17 -206 -33 -220 -35 -14 -3 -41 -8
-60 -11 -88 -14 -417 -82 -445 -91 -11 -4 -22 -8 -25 -8 -41 -10 -109 -31
-165 -52 -89 -34 -437 -209 -491 -248 -23 -17 -52 -37 -64 -45 -12 -8 -32 -24
-45 -35 l-24 -20 4 -265 c5 -298 14 -470 30 -595 7 -47 11 -52 33 -39 39 23
164 57 171 46 22 -35 19 -958 -4 -1162 -2 -19 -7 -80 -10 -135 -3 -55 -7 -113
-9 -130 -2 -16 -7 -66 -11 -110 -3 -44 -8 -91 -11 -105 -2 -14 -6 -54 -9 -90
-3 -36 -8 -76 -10 -90 -3 -14 -7 -47 -10 -75 -3 -27 -8 -61 -10 -75 -3 -14 -7
-47 -11 -75 -3 -27 -8 -58 -10 -69 -2 -10 -6 -44 -10 -75 -3 -31 -8 -59 -10
-62 -1 -3 -6 -28 -10 -55 -3 -27 -8 -58 -11 -69 -2 -11 -6 -35 -9 -52 -2 -18
-13 -81 -25 -140 -11 -60 -21 -115 -22 -123 -1 -8 -10 -22 -19 -32 -10 -10
-18 -27 -18 -38 0 -11 -11 -50 -26 -87 -18 -50 -23 -78 -19 -108 3 -22 8 -51
10 -65 2 -14 6 -38 9 -55 12 -72 23 -167 33 -270 7 -83 9 -305 2 -365 -7 -60
15 -64 311 -62 352 2 855 17 1190 37 36 2 124 7 195 11 163 8 204 10 335 18
161 10 362 24 450 31 96 7 233 17 290 20 30 2 89 6 130 9 41 4 103 9 138 11
155 12 201 15 257 20 33 3 94 7 135 10 41 3 91 7 110 9 19 3 69 7 110 11 245
19 317 25 357 30 21 2 72 7 113 10 41 3 89 8 105 10 17 2 71 6 120 10 50 4
101 8 115 10 14 2 61 7 105 10 44 4 91 8 105 10 25 4 134 16 177 19 39 3 35
12 -23 62 -31 27 -64 56 -73 65 -29 28 -172 139 -235 181 -33 23 -62 45 -64
50 -2 4 -8 8 -14 8 -5 0 -28 13 -51 29 -190 130 -539 314 -597 314 -31 0 -89
-5 -230 -19 -114 -11 -661 -22 -805 -15 -16 1 -37 1 -45 1 -33 -2 -399 18
-470 25 -25 3 -83 7 -130 11 -100 8 -123 10 -210 19 -36 4 -81 8 -100 10 -50
4 -141 15 -170 20 -14 3 -45 7 -70 10 -132 16 -179 23 -191 31 -5 2 -6 26 -4
52 3 26 7 72 10 102 3 30 8 78 11 105 3 28 7 79 9 115 6 95 16 219 20 270 5
48 21 319 24 395 2 50 115 118 306 185 85 30 229 69 315 86 14 3 57 11 95 19
142 28 212 40 378 60 23 3 53 8 67 10 14 2 52 7 85 10 33 3 76 8 95 10 67 8
178 17 342 29 l77 6 38 -35 c21 -19 44 -35 51 -35 6 0 12 -4 12 -9 0 -5 30
-22 68 -37 61 -26 77 -28 182 -28 96 1 126 5 180 26 79 29 182 86 230 126 l35
29 -67 31 c-251 118 -441 139 -594 66 -34 -16 -124 -100 -124 -115 0 -44 -261
108 -461 269 l-87 70 -594 -2 -594 -1 2 40 c4 58 14 365 19 540 2 83 7 258 10
390 4 132 8 241 10 243 1 2 25 9 51 16 27 8 128 37 224 66 96 29 180 53 185
55 6 1 17 5 25 8 18 7 191 59 205 61 6 1 33 9 60 18 54 18 209 67 450 143 505
159 1781 585 1930 644 17 7 31 12 33 11 2 -1 15 3 30 8 15 6 100 36 189 68
123 43 159 59 150 68 -17 16 -154 109 -207 140 -67 40 -307 156 -323 156 -7 0
-17 4 -22 9 -10 9 -188 68 -275 91 -131 35 -145 35 -228 -5z"/>
</g>
</svg>
